<?xml version="1.0" encoding="UTF-8" standalone="no"?>
<svg
   xmlns:dc="http://purl.org/dc/elements/1.1/"
   xmlns:cc="http://creativecommons.org/ns#"
   xmlns:rdf="http://www.w3.org/1999/02/22-rdf-syntax-ns#"
   xmlns:svg="http://www.w3.org/2000/svg"
   xmlns="http://www.w3.org/2000/svg"
   xmlns:sodipodi="http://sodipodi.sourceforge.net/DTD/sodipodi-0.dtd"
   xmlns:inkscape="http://www.inkscape.org/namespaces/inkscape"
   width="280.02844"
   viewBox="0 0 280.02844 280.02845"
   height="280.02844"
   id="svg2"
   version="1.1"
   inkscape:version="0.92.2 (5c3e80d, 2017-08-06)"
   sodipodi:docname="Logo_of_Wiki_Loves_Monuments_in_Georgia_I.svg"
   inkscape:export-filename="C:\Users\Giorgi Balakhadze\Desktop\WLM-Log-2.png"
   inkscape:export-xdpi="222.29584"
   inkscape:export-ydpi="222.29584">
  <metadata
     id="metadata24">
    <rdf:RDF>
      <cc:Work
         rdf:about="">
        <dc:format>image/svg+xml</dc:format>
        <dc:type
           rdf:resource="http://purl.org/dc/dcmitype/StillImage" />
        <dc:title></dc:title>
      </cc:Work>
    </rdf:RDF>
  </metadata>
  <defs
     id="defs22" />
  <sodipodi:namedview
     pagecolor="#ffffff"
     bordercolor="#666666"
     borderopacity="1"
     objecttolerance="10"
     gridtolerance="10"
     guidetolerance="10"
     inkscape:pageopacity="0"
     inkscape:pageshadow="2"
     inkscape:window-width="1366"
     inkscape:window-height="715"
     id="namedview20"
     showgrid="false"
     inkscape:zoom="1.4142136"
     inkscape:cx="177.57725"
     inkscape:cy="126.39087"
     inkscape:window-x="-8"
     inkscape:window-y="-8"
     inkscape:window-maximized="1"
     inkscape:current-layer="layer5"
     showguides="true"
     fit-margin-top="1"
     fit-margin-left="1"
     fit-margin-right="1"
     fit-margin-bottom="1"
     inkscape:pagecheckerboard="true" />
  <g
     inkscape:groupmode="layer"
     id="layer6"
     inkscape:label="Layer -3"
     style="display:inline"
     transform="translate(-14.385774,-11.685777)" />
  <g
     inkscape:groupmode="layer"
     id="layer5"
     inkscape:label="Layer -2"
     style="display:inline"
     transform="translate(-14.385774,-11.685777)">
    <path
       id="circle6"
       style="display:inline;fill:#de2118;fill-opacity:1;stroke-width:1.01027775"
       d="M 293.41421,151.7 A 139.01422,139.01422 0 0 1 154.39999,290.71421 139.01422,139.01422 0 0 1 15.385774,151.7 139.01422,139.01422 0 0 1 154.39999,12.685777 139.01422,139.01422 0 0 1 293.41421,151.7 Z"
       inkscape:connector-curvature="0" />
    <path
       style="display:inline;fill:#ffffff"
       d="M 18.691406,174.17383 A 137.60001,137.60001 0 0 0 131.92773,287.29297 V 174.17383 Z"
       id="path4400"
       inkscape:connector-curvature="0" />
    <path
       style="display:inline;fill:#ffffff"
       d="M 176.87305,16.107422 V 129.22656 H 290.10938 A 137.60001,137.60001 0 0 0 176.87305,16.107422 Z"
       id="path4402"
       inkscape:connector-curvature="0" />
    <path
       style="display:inline;fill:#ffffff"
       d="M 131.92773,15.990234 A 137.60001,137.60001 0 0 0 18.808594,129.22656 H 131.92773 Z"
       id="path4404"
       inkscape:connector-curvature="0" />
    <path
       style="display:inline;fill:#ffffff"
       d="M 176.87305,174.17383 V 287.41016 A 137.60001,137.60001 0 0 0 289.99219,174.17383 Z"
       id="path4417"
       inkscape:connector-curvature="0" />
  </g>
  <g
     inkscape:groupmode="layer"
     id="layer4"
     inkscape:label="Layer -1"
     style="display:inline"
     transform="translate(-14.385774,-11.685777)">
    <path
       id="rect3358"
       style="display:inline;fill:#de2118"
       d="m 74.727121,59.598173 c 0.871594,4.875172 1.439466,9.858294 1.685488,14.923586 -5.065292,-0.246022 -10.048414,-0.813894 -14.923586,-1.685488 0.288694,2.443663 0.456486,4.923361 0.456486,7.444236 0,2.520875 -0.167792,5.000573 -0.456486,7.444236 4.875172,-0.871594 9.858294,-1.439466 14.923586,-1.685488 -0.246022,5.065292 -0.813894,10.048415 -1.685488,14.923585 2.443663,-0.28869 4.923361,-0.45649 7.444236,-0.45649 2.520875,0 5.000573,0.1678 7.444236,0.45649 -0.871594,-4.87517 -1.439466,-9.858293 -1.685488,-14.923585 5.065292,0.246022 10.048418,0.813894 14.923585,1.685488 -0.2887,-2.443663 -0.45649,-4.923361 -0.45649,-7.444236 0,-2.520875 0.16779,-5.000573 0.45649,-7.444236 -4.875167,0.871594 -9.858293,1.439466 -14.923585,1.685488 0.246022,-5.065292 0.813894,-10.048414 1.685488,-14.923586 -2.443663,0.288694 -4.923361,0.456486 -7.444236,0.456486 -2.520875,0 -5.000573,-0.167792 -7.444236,-0.456486 z"
       inkscape:connector-curvature="0" />
    <path
       inkscape:connector-curvature="0"
       d="m 219.1844,59.598171 c 0.87159,4.875172 1.43946,9.858294 1.68549,14.923585 -5.0653,-0.246021 -10.04842,-0.813894 -14.92359,-1.685487 0.28869,2.443662 0.45649,4.92336 0.45649,7.444235 0,2.520876 -0.1678,5.000574 -0.45649,7.444236 4.87517,-0.871593 9.85829,-1.439466 14.92359,-1.685487 -0.24603,5.065291 -0.8139,10.048413 -1.68549,14.923587 2.44366,-0.2887 4.92336,-0.45649 7.44423,-0.45649 2.52087,0 5.00057,0.16779 7.44424,0.45649 -0.8716,-4.875174 -1.43946,-9.858296 -1.68549,-14.923587 5.0653,0.246021 10.04842,0.813894 14.92359,1.685487 -0.28869,-2.443662 -0.45649,-4.92336 -0.45649,-7.444236 0,-2.520875 0.1678,-5.000573 0.45649,-7.444235 -4.87517,0.871593 -9.85829,1.439466 -14.92359,1.685487 0.24603,-5.065291 0.81389,-10.048413 1.68549,-14.923585 -2.44367,0.288693 -4.92337,0.456486 -7.44424,0.456486 -2.52087,0 -5.00057,-0.167793 -7.44423,-0.456486 z"
       style="display:inline;fill:#de2118"
       id="path4368" />
    <path
       id="path4372"
       style="display:inline;fill:#de2118"
       d="m 219.1844,205.2463 c 0.87159,4.87517 1.43946,9.85829 1.68549,14.92359 -5.0653,-0.24603 -10.04842,-0.8139 -14.92359,-1.68549 0.28869,2.44367 0.45649,4.92337 0.45649,7.44424 0,2.52087 -0.1678,5.00057 -0.45649,7.44423 4.87517,-0.8716 9.85829,-1.43946 14.92359,-1.68549 -0.24603,5.0653 -0.8139,10.04842 -1.68549,14.92359 2.44366,-0.28869 4.92336,-0.45649 7.44423,-0.45649 2.52087,0 5.00057,0.1678 7.44424,0.45649 -0.8716,-4.87517 -1.43946,-9.85829 -1.68549,-14.92359 5.0653,0.24603 10.04842,0.81389 14.92359,1.68549 -0.28869,-2.44366 -0.45649,-4.92336 -0.45649,-7.44423 0,-2.52087 0.1678,-5.00057 0.45649,-7.44424 -4.87517,0.87159 -9.85829,1.43946 -14.92359,1.68549 0.24603,-5.0653 0.81389,-10.04842 1.68549,-14.92359 -2.44367,0.28869 -4.92337,0.45649 -7.44424,0.45649 -2.52087,0 -5.00057,-0.1678 -7.44423,-0.45649 z"
       inkscape:connector-curvature="0" />
    <path
       inkscape:connector-curvature="0"
       d="m 74.727123,205.2463 c 0.871588,4.87517 1.439462,9.85829 1.685487,14.92359 -5.065294,-0.24603 -10.048414,-0.8139 -14.923585,-1.68549 0.28869,2.44367 0.456486,4.92337 0.456486,7.44424 0,2.52087 -0.167796,5.00057 -0.456486,7.44423 4.875171,-0.8716 9.858291,-1.43946 14.923585,-1.68549 -0.246025,5.0653 -0.813899,10.04842 -1.685487,14.92359 2.443664,-0.28869 4.923365,-0.45649 7.444235,-0.45649 2.520871,0 5.000572,0.1678 7.444236,0.45649 -0.871599,-4.87517 -1.439462,-9.85829 -1.685487,-14.92359 5.065294,0.24603 10.048414,0.81389 14.923583,1.68549 -0.28869,-2.44366 -0.45648,-4.92336 -0.45648,-7.44423 0,-2.52087 0.16779,-5.00057 0.45648,-7.44424 -4.875169,0.87159 -9.858289,1.43946 -14.923583,1.68549 0.246025,-5.0653 0.813888,-10.04842 1.685487,-14.92359 -2.443664,0.28869 -4.923365,0.45649 -7.444236,0.45649 -2.52087,0 -5.000571,-0.1678 -7.444235,-0.45649 z"
       style="display:inline;fill:#de2118"
       id="path4376" />
  </g>
  <g
     inkscape:groupmode="layer"
     id="layer1"
     inkscape:label="ground"
     style="display:inline"
     transform="translate(-14.385774,-11.685777)">
    <text
       xml:space="preserve"
       style="font-style:normal;font-weight:normal;line-height:0%;font-family:sans-serif;letter-spacing:0px;word-spacing:0px;fill:#000000;fill-opacity:1;stroke:none;stroke-width:1px;stroke-linecap:butt;stroke-linejoin:miter;stroke-opacity:1"
       x="64.346718"
       y="428.92032"
       id="text4166"><tspan
         sodipodi:role="line"
         id="tspan4168"
         x="64.346718"
         y="428.92032"
         style="font-size:17.5px;line-height:1.25"> </tspan></text>
  </g>
  <g
     inkscape:groupmode="layer"
     id="layer2"
     inkscape:label="+"
     style="display:inline"
     transform="translate(-14.385774,-11.685777)" />
</svg>
